<svg width="16" height="16" viewBox="0 0 16 16" fill="none" xmlns="http://www.w3.org/2000/svg">
<path d="M7.99984 15.2692C12.0432 15.2692 15.3332 11.9796 15.3332 7.93587C15.3332 7.23793 15.2357 6.55013 15.0428 5.89143C14.9478 5.56752 14.6096 5.38147 14.2848 5.47651C13.9606 5.57125 13.7751 5.91067 13.8698 6.23458C14.0296 6.78183 14.1109 7.35445 14.1109 7.93587C14.1109 11.3055 11.3695 14.047 7.99984 14.047C4.63022 14.047 1.88873 11.3055 1.88873 7.93587C1.88873 4.56626 4.63022 1.82476 7.99984 1.82476C9.22445 1.82476 10.4027 2.18283 11.4071 2.86004C11.6866 3.04877 12.0668 2.97462 12.2552 2.69503C12.4438 2.41513 12.3703 2.03528 12.0904 1.84669C10.8834 1.03282 9.46898 0.602539 7.99984 0.602539C3.95645 0.602539 0.666504 3.89218 0.666504 7.93587C0.666504 11.9796 3.95645 15.2692 7.99984 15.2692Z" fill="#FF3F3A"/>
<path d="M14.8617 1.4644L7.99971 8.32605L5.8044 6.13106C5.54399 5.87081 5.12211 5.87081 4.86169 6.13106C4.60144 6.39148 4.60144 6.81335 4.86169 7.07377L7.52836 9.74044C7.65873 9.87081 7.82898 9.93575 7.99971 9.93575C8.17045 9.93575 8.3407 9.87081 8.47107 9.74044L15.8044 2.4071C16.0647 2.14669 16.0647 1.72481 15.8044 1.4644C15.544 1.20414 15.1221 1.20414 14.8617 1.4644Z" fill="#FF3F3A"/>
</svg>
